<svg width="512" height="512" viewBox="0 0 512 512" fill="none" xmlns="http://www.w3.org/2000/svg">
<path d="M497.941 113.941C506.943 122.943 512 135.152 512 147.882V208C512 234.51 490.51 256 464 256H405.097C392.24 256 379.92 250.842 370.898 241.681L320 190L289.398 160.354C270.784 142.322 241.216 142.322 222.602 160.354L192 190L127.598 255.393C127.376 255.618 127.536 256 127.852 256C127.947 256 128.038 256.038 128.105 256.105L256 384V464C256 490.51 234.51 512 208 512H149.097C136.24 512 123.92 506.842 114.898 497.681L64 446L14.6018 398.146C5.26859 389.104 0 376.665 0 363.67V147.882C0 135.152 5.05713 122.943 14.0589 113.941L113.941 14.0589C122.943 5.05711 135.152 0 147.882 0H364.118C376.848 0 389.057 5.05713 398.059 14.0589L497.941 113.941ZM497.941 369.941C506.943 378.943 512 391.152 512 403.882V464C512 490.51 490.51 512 464 512H405.097C392.24 512 379.92 506.842 370.898 497.681L320 446L256 384V304C256 277.49 277.49 256 304 256H364.118C376.848 256 389.057 261.057 398.059 270.059L497.941 369.941Z" fill="#606BD0"/>
</svg>
