<svg width="400" height="400" viewBox="0 0 400 400" fill="none" xmlns="http://www.w3.org/2000/svg">
<path d="M281.304 200C281.304 206.905 400.698 213.737 399.997 220.459C399.296 227.181 398.301 233.792 396.936 240.331C395.609 246.832 393.95 253.223 391.996 259.504C390.041 265.785 275.921 271.882 274.925 277.87C273.893 283.857 379.864 289.697 376.804 295.354C373.707 301.01 370.351 306.52 366.738 311.846C363.124 317.172 359.253 322.314 355.16 327.236C351.067 332.158 259.365 336.896 257.521 341.451C255.678 345.969 332.889 350.266 327.911 354.343C322.933 358.421 317.771 362.277 312.425 365.84C307.078 369.403 301.547 372.782 295.832 375.868C290.117 378.953 234.07 381.745 231.637 384.279C229.203 386.814 266.076 389.054 259.77 391.001C253.465 392.948 247.049 394.601 240.523 395.923C233.997 397.245 227.323 398.274 220.575 398.972C213.827 399.669 202.839 400 200.037 400C197.235 400 186.247 399.633 179.499 398.972C172.751 398.31 166.077 397.282 159.551 395.923C153.024 394.601 146.572 392.948 140.303 391.001C133.998 389.054 170.871 386.814 168.437 384.279C166.003 381.745 109.957 378.953 104.242 375.868C98.5266 372.782 93.0326 369.44 87.6492 365.84C82.2658 362.241 77.1405 358.421 72.1627 354.343C67.1849 350.266 144.396 345.969 142.552 341.451C140.709 336.933 49.0067 332.195 44.9139 327.236C40.821 322.314 36.9494 317.172 33.3359 311.846C29.7224 306.52 26.367 301.01 23.2697 295.354C20.1724 289.697 126.144 283.857 125.149 277.87C124.116 271.882 10.0324 265.748 8.07817 259.504C6.12392 253.26 4.46465 246.832 3.13724 240.331C1.80983 233.829 0.777394 227.181 0.0768144 220.459C-0.623765 213.737 118.77 206.905 118.77 200C118.77 193.095 -0.69751 186.263 0.00306925 179.541C0.703648 172.819 1.69921 166.208 3.06349 159.669C4.39091 153.168 6.05017 146.777 8.00442 140.496C9.95867 134.252 124.079 128.118 125.075 122.13C126.07 116.143 20.1355 110.303 23.1959 104.646C26.2932 98.9899 29.6486 93.4803 33.2621 88.1543C36.8757 82.8283 40.7473 77.6859 44.8401 72.764C48.933 67.8421 140.635 63.1038 142.479 58.5491C144.322 54.0312 67.1112 49.7337 72.089 45.6566C77.0668 41.5794 82.2289 37.7227 87.5755 34.1598C92.922 30.5601 98.4529 27.2176 104.168 24.1322C109.883 21.0468 165.93 18.2553 168.363 15.7208C170.797 13.1864 133.924 10.9458 140.23 8.99908C146.535 7.05234 152.951 5.39945 159.477 4.07713C166.003 2.75482 172.677 1.72635 179.425 1.02847C186.173 0.330579 197.161 0 199.963 0C202.765 0 213.753 0.367309 220.501 1.02847C227.249 1.68962 233.923 2.71809 240.449 4.07713C246.976 5.43618 253.428 7.05234 259.697 8.99908C266.002 10.9458 229.129 13.1864 231.563 15.7208C233.997 18.2553 290.043 21.0468 295.758 24.1322C301.473 27.2176 306.967 30.5601 312.351 34.1598C317.697 37.7594 322.859 41.5794 327.837 45.6566C332.815 49.7337 255.604 54.0312 257.447 58.5491C259.291 63.067 350.993 67.8053 355.086 72.764C359.179 77.7227 363.051 82.8283 366.664 88.1543C370.278 93.4803 373.633 98.9899 376.73 104.646C379.828 110.303 273.856 116.143 274.851 122.13C275.847 128.118 389.968 134.252 391.922 140.496C393.876 146.74 395.535 153.168 396.863 159.669C398.19 166.171 399.223 172.819 399.923 179.541C400.624 186.263 281.23 193.095 281.23 200H281.304Z" fill="#212121"/>
</svg>
